<svg width="22" height="22" viewBox="0 0 22 22" fill="none" xmlns="http://www.w3.org/2000/svg">
<path d="M20.7843 0.00100708H1.21421C0.544077 0.00100708 0 0.544007 0 1.21524V20.7857C0 21.4569 0.544077 22.0006 1.21421 22.0006H11.7502V13.4811H8.88346V10.1604H11.7502V7.71167C11.7502 4.87062 13.4849 3.32276 16.0199 3.32276C17.2352 3.32276 18.2773 3.41368 18.5812 3.45317V6.42282L16.8229 6.42354C15.4446 6.42354 15.1787 7.07884 15.1787 8.03986V10.1593H18.4671L18.0371 13.4796H15.1784V21.9996H20.784C21.4548 21.9996 21.9993 21.4551 21.9993 20.7857V1.21452C21.9989 0.544007 21.4552 0.00100708 20.7843 0.00100708Z" fill="white"/>
</svg>
