<svg width="22" height="18" viewBox="0 0 22 18" fill="none" xmlns="http://www.w3.org/2000/svg">
<path d="M22 2.18808C21.1345 2.56036 20.2688 2.79285 19.4037 2.88623C20.3808 2.29995 21.0417 1.47169 21.3861 0.401506C20.4923 0.931855 19.5385 1.2947 18.5243 1.49022C17.6308 0.540999 16.5328 0.0661926 15.2296 0.0661926C13.9828 0.0661926 12.9196 0.505844 12.0398 1.38534C11.1605 2.26479 10.7208 3.32794 10.7208 4.57492C10.7208 4.90989 10.758 5.25435 10.8325 5.60795C8.98979 5.5149 7.2612 5.05193 5.64644 4.21903C4.03177 3.38602 2.66143 2.27624 1.53541 0.88966C1.12593 1.58747 0.921111 2.34606 0.921111 3.16498C0.921111 3.9374 1.10256 4.65408 1.46569 5.31483C1.82858 5.97548 2.31727 6.51053 2.93152 6.92006C2.2055 6.89209 1.52617 6.70126 0.893437 6.34761V6.40345C0.893437 7.49236 1.23545 8.44838 1.91937 9.27224C2.6034 10.096 3.46661 10.6145 4.50883 10.8287C4.11793 10.9309 3.72233 10.9821 3.32223 10.9821C3.06163 10.9821 2.77775 10.9589 2.4707 10.9127C2.75917 11.8152 3.28967 12.5571 4.06199 13.139C4.83446 13.7207 5.70927 14.0205 6.68646 14.0396C5.04862 15.3236 3.18274 15.9656 1.08882 15.9656C0.688573 15.9656 0.325733 15.9474 -4.57764e-05 15.9099C2.09392 17.2592 4.40185 17.9338 6.92388 17.9338C8.52456 17.9338 10.0276 17.6805 11.4324 17.1732C12.8379 16.6662 14.0383 15.9867 15.0341 15.135C16.0297 14.2835 16.8884 13.3041 17.6095 12.1967C18.3307 11.0892 18.868 9.93298 19.2219 8.72785C19.5754 7.52248 19.7523 6.31524 19.7523 5.10522C19.7523 4.84462 19.7476 4.64929 19.7383 4.51894C20.6226 3.87711 21.3764 3.0999 22 2.18808Z" fill="white"/>
</svg>
